<?xml version="1.0" encoding="UTF-8"?>
<svg width="456px" height="102px" viewBox="0 0 456 102" version="1.1" xmlns="http://www.w3.org/2000/svg" xmlns:xlink="http://www.w3.org/1999/xlink">
    <!-- Generator: Sketch 53.2 (72643) - https://sketchapp.com -->
    <title>logo_cb_white</title>
    <desc>Created with Sketch.</desc>
    <g id="logo_cb_white" stroke="none" stroke-width="1" fill="none" fill-rule="evenodd" transform="translate(0.000000, 0.000000)">
        <g id="cont" transform="translate(1.000000, 1.000000)" fill-rule="nonzero">
            <g id="Group-2">
                <g id="Group">
                    <g id="Group-3" transform="translate(125.000000, 18.000000)" fill="#FFFFFF">
                        <path d="M179.211361,37 L176.377807,29.9322034 L162.261559,29.9322034 L159.582563,37 L150,37 L165.301189,1 L173.853369,1 L189,37 L179.211361,37 Z M169.422721,10.6101695 L164.785997,22.9661017 L173.956407,22.9661017 L169.422721,10.6101695 Z" id="Combined-Shape"></path>
                        <path d="M149,23.4442916 C149,25.6157834 148.633996,27.5921507 147.901977,29.3734525 C147.169958,31.1547544 146.123016,32.6815617 144.76112,33.9539202 C143.399224,35.2262787 141.756462,36.2187035 139.832784,36.9312242 C137.909106,37.643745 135.772664,38 133.423394,38 C131.040076,38 128.895122,37.643745 126.988468,36.9312242 C125.081814,36.2187035 123.464587,35.2262787 122.136738,33.9539202 C120.80889,32.6815617 119.787483,31.1547544 119.072488,29.3734525 C118.357492,27.5921507 118,25.6157834 118,23.4442916 L118,1 L126.682043,1 L126.682043,22.7317744 C126.682043,23.7157317 126.809719,24.6487806 127.065074,25.5309491 C127.32043,26.4131177 127.711969,27.2019681 128.239703,27.8975241 C128.767438,28.59308 129.465399,29.1444271 130.333608,29.5515818 C131.201817,29.9587366 132.248758,30.1623109 133.474465,30.1623109 C134.700171,30.1623109 135.747113,29.9587366 136.615321,29.5515818 C137.48353,29.1444271 138.190003,28.59308 138.734761,27.8975241 C139.279519,27.2019681 139.671059,26.4131177 139.90939,25.5309491 C140.147722,24.6487806 140.266886,23.7157317 140.266886,22.7317744 L140.266886,1 L149,1 L149,23.4442916 Z" id="Path"></path>
                        <path d="M112,34.8885906 C110.271895,35.806716 108.253033,36.554807 105.943353,37.1328859 C103.633674,37.7109649 101.116328,38 98.3912387,38 C95.5664511,38 92.966024,37.5409442 90.5898792,36.6228188 C88.2137343,35.7046934 86.1699481,34.4125363 84.4584592,32.7463087 C82.7469703,31.0800812 81.4093704,29.0823383 80.4456193,26.7530201 C79.4818683,24.423702 79,21.8308868 79,18.9744966 C79,16.0841019 79.4901764,13.4657835 80.4705438,11.1194631 C81.4509112,8.77314263 82.8051273,6.77539974 84.5332326,5.1261745 C86.2613379,3.47694925 88.288508,2.21029525 90.6148036,1.3261745 C92.9410992,0.442053745 95.4501376,0 98.141994,0 C100.933549,0 103.525668,0.433552711 105.918429,1.30067114 C108.31119,2.16778957 110.25528,3.33243117 111.750755,4.79463087 L106.367069,11.0684564 C105.53625,10.0823217 104.439584,9.2747235 103.077039,8.64563758 C101.714495,8.01655166 100.169193,7.70201342 98.4410876,7.70201342 C96.9456119,7.70201342 95.5664716,7.98254753 94.3036254,8.54362416 C93.0407792,9.10470079 91.9441134,9.88679588 91.0135952,10.8899329 C90.0830769,11.8930699 89.3602745,13.0832146 88.8451662,14.4604027 C88.3300578,15.8375908 88.0725076,17.3422737 88.0725076,18.9744966 C88.0725076,20.6407242 88.3051336,22.1709103 88.7703927,23.5651007 C89.2356519,24.9592911 89.925222,26.1579368 90.8391239,27.1610738 C91.7530257,28.1642108 92.8829238,28.9463059 94.228852,29.5073826 C95.5747801,30.0684592 97.1117738,30.3489933 98.8398792,30.3489933 C99.836863,30.3489933 100.783983,30.272484 101.681269,30.1194631 C102.578554,29.9664422 103.409362,29.7199122 104.173716,29.3798658 L104.173716,22.8 L97.4441088,22.8 L97.4441088,15.7610738 L112,15.7610738 L112,34.8885906 Z" id="Path"></path>
                        <path d="M257,18.8983051 C257,22.0508632 256.425876,24.771175 255.27761,27.059322 C254.129344,29.3474691 252.614987,31.2288062 250.734493,32.7033898 C248.854,34.1779735 246.732236,35.2627084 244.369138,35.9576271 C242.00604,36.6525458 239.609694,37 237.18003,37 L224,37 L224,1 L236.780635,1 C239.276866,1 241.739776,1.2966072 244.16944,1.88983051 C246.599104,2.48305381 248.762472,3.46609483 250.659607,4.83898305 C252.556742,6.21187127 254.08774,8.05083593 255.252648,10.3559322 C256.417555,12.6610285 257,15.5084576 257,18.8983051 Z M248.113464,18.8983051 C248.113464,16.8643966 247.788959,15.1779728 247.139939,13.8389831 C246.49092,12.4999933 245.625573,11.4322074 244.543873,10.6355932 C243.462173,9.83897907 242.230718,9.27118814 240.84947,8.93220339 C239.468223,8.59321864 238.045393,8.42372881 236.580938,8.42372881 L232.337368,8.42372881 L232.337368,29.4745763 L236.381241,29.4745763 C237.912262,29.4745763 239.385016,29.2966119 240.799546,28.940678 C242.214077,28.584744 243.462173,28.0000041 244.543873,27.1864407 C245.625573,26.3728773 246.49092,25.2881424 247.139939,23.9322034 C247.788959,22.5762644 248.113464,20.8983151 248.113464,18.8983051 Z" id="Combined-Shape"></path>
                        <path d="M75,18.8983051 C75,22.0508632 74.4258756,24.771175 73.2776097,27.059322 C72.1293437,29.3474691 70.6149867,31.2288062 68.7344932,32.7033898 C66.8539997,34.1779735 64.7322357,35.2627084 62.3691377,35.9576271 C60.0060396,36.6525458 57.6096944,37 55.1800303,37 L42,37 L42,1 L54.7806354,1 C57.2768657,1 59.7397761,1.2966072 62.1694402,1.88983051 C64.5991044,2.48305381 66.7624716,3.46609483 68.6596067,4.83898305 C70.5567417,6.21187127 72.08774,8.05083593 73.2526475,10.3559322 C74.417555,12.6610285 75,15.5084576 75,18.8983051 Z M66.1134644,18.8983051 C66.1134644,16.8643966 65.7889594,15.1779728 65.1399395,13.8389831 C64.4909196,12.4999933 63.6255727,11.4322074 62.5438729,10.6355932 C61.4621731,9.83897907 60.230718,9.27118814 58.8494705,8.93220339 C57.468223,8.59321864 56.0453931,8.42372881 54.580938,8.42372881 L50.3373676,8.42372881 L50.3373676,29.4745763 L54.3812405,29.4745763 C55.9122618,29.4745763 57.3850156,29.2966119 58.7995461,28.940678 C60.2140767,28.584744 61.4621731,28.0000041 62.5438729,27.1864407 C63.6255727,26.3728773 64.4909196,25.2881424 65.1399395,23.9322034 C65.7889594,22.5762644 66.1134644,20.8983151 66.1134644,18.8983051 Z" id="Combined-Shape"></path>
                        <path d="M29.2113606,37 L26.3778071,29.9322034 L12.2615588,29.9322034 L9.58256275,37 L0,37 L15.3011889,1 L23.8533686,1 L39,37 L29.2113606,37 Z M19.4227213,10.6101695 L14.7859974,22.9661017 L23.9564069,22.9661017 L19.4227213,10.6101695 Z" id="Combined-Shape"></path>
                        <path d="M209.982729,37 L202.319516,22.7118644 L199.414508,22.7118644 L199.414508,37 L191,37 L191,1 L204.523316,1 C206.226261,1 207.887442,1.17796432 209.506908,1.53389831 C211.126375,1.88983229 212.578865,2.49152119 213.864421,3.33898305 C215.149978,4.18644492 216.176738,5.3050778 216.944732,6.69491525 C217.712727,8.08475271 218.096718,9.81354898 218.096718,11.8813559 C218.096718,14.3220461 217.445602,16.3728731 216.143351,18.0338983 C214.841099,19.6949236 213.038008,20.8813524 210.734024,21.5932203 L220,37 L209.982729,37 Z M209.632124,12.0338983 C209.632124,11.1864364 209.456824,10.5000026 209.106218,9.97457627 C208.755611,9.44914992 208.304839,9.04237432 207.753886,8.75423729 C207.202933,8.46610025 206.585208,8.27118695 205.900691,8.16949153 C205.216174,8.0677961 204.55671,8.01694915 203.92228,8.01694915 L199.364421,8.01694915 L199.364421,16.4067797 L203.421416,16.4067797 C204.122629,16.4067797 204.840526,16.3474582 205.57513,16.2288136 C206.309733,16.1101689 206.977544,15.8983066 207.578584,15.5932203 C208.179623,15.2881341 208.672134,14.8474605 209.056131,14.2711864 C209.440129,13.6949124 209.632124,12.9491571 209.632124,12.0338983 Z" id="Combined-Shape"></path>
                    </g>
                    <path d="M137.732,92.336 C134.913319,92.336 132.570676,91.3606764 130.704,89.41 C128.837324,87.4593236 127.904,85.0560143 127.904,82.2 C127.904,79.3813192 128.846657,76.9873432 130.732,75.018 C132.617343,73.0486568 134.978652,72.064 137.816,72.064 C139.458675,72.064 140.858661,72.3299973 142.016,72.862 C143.173339,73.3940027 144.302661,74.1826614 145.404,75.228 L143.948,76.796 C142.062657,75.003991 140.009344,74.108 137.788,74.108 C135.622656,74.108 133.816674,74.8826589 132.37,76.432 C130.923326,77.9813411 130.2,79.9039885 130.2,82.2 C130.2,84.4773447 130.927993,86.3953255 132.384,87.954 C133.840007,89.5126745 135.641323,90.292 137.788,90.292 C139.05734,90.292 140.177328,90.058669 141.148,89.592 C142.118672,89.125331 143.107995,88.4160048 144.116,87.464 L145.572,89.004 C144.470661,90.1053388 143.313339,90.9359972 142.1,91.496 C140.886661,92.0560028 139.430675,92.336 137.732,92.336 Z M165.572,89.368 C163.686657,91.3466766 161.288015,92.336 158.376,92.336 C155.463985,92.336 153.074676,91.3466766 151.208,89.368 C149.341324,87.3893234 148.408,85.000014 148.408,82.2 C148.408,79.4186528 149.350657,77.0340099 151.236,75.046 C153.121343,73.0579901 155.519985,72.064 158.432,72.064 C161.344015,72.064 163.733324,73.0533234 165.6,75.032 C167.466676,77.0106766 168.4,79.399986 168.4,82.2 C168.4,84.9813472 167.457343,87.3706567 165.572,89.368 Z M152.888,87.94 C154.362674,89.5080078 156.210656,90.292 158.432,90.292 C160.653344,90.292 162.487326,89.5126745 163.934,87.954 C165.380674,86.3953255 166.104,84.4773447 166.104,82.2 C166.104,79.941322 165.371341,78.0280078 163.906,76.46 C162.440659,74.8919922 160.597344,74.108 158.376,74.108 C156.154656,74.108 154.320674,74.8873255 152.874,76.446 C151.427326,78.0046745 150.704,79.9226553 150.704,82.2 C150.704,84.458678 151.431993,86.3719922 152.888,87.94 Z M173.476,92 L173.476,72.4 L175.548,72.4 L187.896,88.108 L187.896,72.4 L190.052,72.4 L190.052,92 L188.288,92 L175.632,75.928 L175.632,92 L173.476,92 Z M201.176,92 L201.176,74.444 L194.596,74.444 L194.596,72.4 L209.996,72.4 L209.996,74.444 L203.416,74.444 L203.416,92 L201.176,92 Z M214.54,92 L214.54,72.4 L228.708,72.4 L228.708,74.416 L216.752,74.416 L216.752,81.108 L227.448,81.108 L227.448,83.124 L216.752,83.124 L216.752,89.984 L228.848,89.984 L228.848,92 L214.54,92 Z M233.7,92 L233.7,72.4 L235.772,72.4 L248.12,88.108 L248.12,72.4 L250.276,72.4 L250.276,92 L248.512,92 L235.856,75.928 L235.856,92 L233.7,92 Z M261.4,92 L261.4,74.444 L254.82,74.444 L254.82,72.4 L270.22,72.4 L270.22,74.444 L263.64,74.444 L263.64,92 L261.4,92 Z M283.564,92 L283.564,72.4 L291.908,72.4 C294.204011,72.4 295.911994,72.9786609 297.032,74.136 C297.872004,75.0133377 298.292,76.0773271 298.292,77.328 C298.292,79.4560106 297.25601,80.9679955 295.184,81.864 C297.984014,82.7040042 299.384,84.2999882 299.384,86.652 C299.384,88.3133416 298.740006,89.6199952 297.452,90.572 C296.163994,91.5240048 294.437344,92 292.272,92 L283.564,92 Z M285.748,81.136 L291.544,81.136 C292.906673,81.136 293.998663,80.8280031 294.82,80.212 C295.641337,79.5959969 296.052,78.7186724 296.052,77.58 C296.052,76.5906617 295.674004,75.8113362 294.918,75.242 C294.161996,74.6726638 293.09334,74.388 291.712,74.388 L285.748,74.388 L285.748,81.136 Z M285.748,90.012 L292.328,90.012 C293.821341,90.012 294.997329,89.6993365 295.856,89.074 C296.714671,88.4486635 297.144,87.5760056 297.144,86.456 C297.144,85.3733279 296.700671,84.5426696 295.814,83.964 C294.927329,83.3853304 293.634675,83.096 291.936,83.096 L285.748,83.096 L285.748,90.012 Z M304.18,92 L304.18,72.4 L306.392,72.4 L306.392,89.956 L317.424,89.956 L317.424,92 L304.18,92 Z M337.088,89.368 C335.202657,91.3466766 332.804015,92.336 329.892,92.336 C326.979985,92.336 324.590676,91.3466766 322.724,89.368 C320.857324,87.3893234 319.924,85.000014 319.924,82.2 C319.924,79.4186528 320.866657,77.0340099 322.752,75.046 C324.637343,73.0579901 327.035985,72.064 329.948,72.064 C332.860015,72.064 335.249324,73.0533234 337.116,75.032 C338.982676,77.0106766 339.916,79.399986 339.916,82.2 C339.916,84.9813472 338.973343,87.3706567 337.088,89.368 Z M324.404,87.94 C325.878674,89.5080078 327.726656,90.292 329.948,90.292 C332.169344,90.292 334.003326,89.5126745 335.45,87.954 C336.896674,86.3953255 337.62,84.4773447 337.62,82.2 C337.62,79.941322 336.887341,78.0280078 335.422,76.46 C333.956659,74.8919922 332.113344,74.108 329.892,74.108 C327.670656,74.108 325.836674,74.8873255 324.39,76.446 C322.943326,78.0046745 322.22,79.9226553 322.22,82.2 C322.22,84.458678 322.947993,86.3719922 324.404,87.94 Z M353.952,92.336 C351.133319,92.336 348.790676,91.3606764 346.924,89.41 C345.057324,87.4593236 344.124,85.0560143 344.124,82.2 C344.124,79.3813192 345.066657,76.9873432 346.952,75.018 C348.837343,73.0486568 351.198652,72.064 354.036,72.064 C355.678675,72.064 357.078661,72.3299973 358.236,72.862 C359.393339,73.3940027 360.522661,74.1826614 361.624,75.228 L360.168,76.796 C358.282657,75.003991 356.229344,74.108 354.008,74.108 C351.842656,74.108 350.036674,74.8826589 348.59,76.432 C347.143326,77.9813411 346.42,79.9039885 346.42,82.2 C346.42,84.4773447 347.147993,86.3953255 348.604,87.954 C350.060007,89.5126745 351.861323,90.292 354.008,90.292 C355.27734,90.292 356.397328,90.058669 357.368,89.592 C358.338672,89.125331 359.327995,88.4160048 360.336,87.464 L361.792,89.004 C360.690661,90.1053388 359.533339,90.9359972 358.32,91.496 C357.106661,92.0560028 355.650675,92.336 353.952,92.336 Z M366.056,92 L366.056,72.4 L368.268,72.4 L368.268,84.104 L379.524,72.4 L382.38,72.4 L373.98,80.968 L382.744,92 L379.972,92 L372.44,82.508 L368.268,86.736 L368.268,92 L366.056,92 Z M386.588,92 L386.588,72.4 L400.756,72.4 L400.756,74.416 L388.8,74.416 L388.8,81.108 L399.496,81.108 L399.496,83.124 L388.8,83.124 L388.8,89.984 L400.896,89.984 L400.896,92 L386.588,92 Z M405.748,92 L405.748,72.4 L414.176,72.4 C416.584012,72.4 418.441327,73.0533268 419.748,74.36 C420.756005,75.368005 421.26,76.6746586 421.26,78.28 C421.26,79.8480078 420.774672,81.1173285 419.804,82.088 C418.833328,83.0586715 417.545341,83.6933318 415.94,83.992 L421.96,92 L419.244,92 L413.56,84.384 L407.96,84.384 L407.96,92 L405.748,92 Z M407.96,82.396 L413.98,82.396 C415.473341,82.396 416.686662,82.0320036 417.62,81.304 C418.553338,80.5759964 419.02,79.5773397 419.02,78.308 C419.02,77.0946606 418.576671,76.1473367 417.69,75.466 C416.803329,74.7846633 415.576008,74.444 414.008,74.444 L407.96,74.444 L407.96,82.396 Z" id="CONTENTBLOCKER" fill="#FFFFFF"></path>
                    <g id="Group-9">
                        <g id="Group-8">
                            <g id="Group-7">
                                <path d="M49.2867362,0 C33.8812166,0 15.2983087,3.57659574 1.51147113e-05,11.4489362 C1.51147113e-05,28.4510638 -0.211154294,70.8085106 49.2867362,99.75 C98.7857208,70.8085106 98.5756455,28.4510638 98.5756455,11.4489362 C83.2762578,3.57659574 64.6933498,0 49.2867362,0 L49.2867362,0 Z" id="Path" fill="#68BC71"></path>
                                <path d="M49.236383,99.7205453 C-0.211018587,70.7797691 7.60552839e-06,28.4452847 7.60552839e-06,11.4489234 C15.2816399,3.58515676 33.8407358,0.00778289205 49.236383,2.25827002e-13 L49.236383,99.7205453 L49.236383,99.7205453 Z" id="Combined-Shape" fill="#67B279"></path>
                            </g>
                            <path d="M47.4889507,66.5564478 L77.2934578,26.8983477 C75.1094441,25.1700907 73.1937521,26.3898587 72.1391855,27.3341953 L72.1007052,27.337222 L47.2497492,52.859532 L37.8865705,41.7353279 C33.4197424,36.6403497 27.3471443,40.5266579 25.9285754,41.5537248 L47.4889507,66.5564478" id="Fill-11" fill="#FFFFFF"></path>
                        </g>
                    </g>
                </g>
            </g>
        </g>
    </g>
</svg>