<?xml version="1.0" encoding="UTF-8"?>
<svg width="455px" height="103px" viewBox="0 0 455 103" version="1.1" xmlns="http://www.w3.org/2000/svg" xmlns:xlink="http://www.w3.org/1999/xlink">
    <!-- Generator: Sketch 53.2 (72643) - https://sketchapp.com -->
    <title>logo_iPadOS_white</title>
    <desc>Created with Sketch.</desc>
    <g id="logo_iPadOS_white" stroke="none" stroke-width="1" fill="none" fill-rule="evenodd" transform="translate(0.000000, 0.000000)">
        <g id="ipados" transform="translate(1.000000, 1.000000)" fill-rule="nonzero">
            <g id="Group-2">
                <g id="Group">
                    <g id="Group-3" transform="translate(125.000000, 18.000000)" fill="#FFFFFF">
                        <path d="M179.211361,37 L176.377807,29.9322034 L162.261559,29.9322034 L159.582563,37 L150,37 L165.301189,1 L173.853369,1 L189,37 L179.211361,37 Z M169.422721,10.6101695 L164.785997,22.9661017 L173.956407,22.9661017 L169.422721,10.6101695 Z" id="Combined-Shape"></path>
                        <path d="M149,23.4442916 C149,25.6157834 148.633996,27.5921507 147.901977,29.3734525 C147.169958,31.1547544 146.123016,32.6815617 144.76112,33.9539202 C143.399224,35.2262787 141.756462,36.2187035 139.832784,36.9312242 C137.909106,37.643745 135.772664,38 133.423394,38 C131.040076,38 128.895122,37.643745 126.988468,36.9312242 C125.081814,36.2187035 123.464587,35.2262787 122.136738,33.9539202 C120.80889,32.6815617 119.787483,31.1547544 119.072488,29.3734525 C118.357492,27.5921507 118,25.6157834 118,23.4442916 L118,1 L126.682043,1 L126.682043,22.7317744 C126.682043,23.7157317 126.809719,24.6487806 127.065074,25.5309491 C127.32043,26.4131177 127.711969,27.2019681 128.239703,27.8975241 C128.767438,28.59308 129.465399,29.1444271 130.333608,29.5515818 C131.201817,29.9587366 132.248758,30.1623109 133.474465,30.1623109 C134.700171,30.1623109 135.747113,29.9587366 136.615321,29.5515818 C137.48353,29.1444271 138.190003,28.59308 138.734761,27.8975241 C139.279519,27.2019681 139.671059,26.4131177 139.90939,25.5309491 C140.147722,24.6487806 140.266886,23.7157317 140.266886,22.7317744 L140.266886,1 L149,1 L149,23.4442916 Z" id="Path"></path>
                        <path d="M112,34.8885906 C110.271895,35.806716 108.253033,36.554807 105.943353,37.1328859 C103.633674,37.7109649 101.116328,38 98.3912387,38 C95.5664511,38 92.966024,37.5409442 90.5898792,36.6228188 C88.2137343,35.7046934 86.1699481,34.4125363 84.4584592,32.7463087 C82.7469703,31.0800812 81.4093704,29.0823383 80.4456193,26.7530201 C79.4818683,24.423702 79,21.8308868 79,18.9744966 C79,16.0841019 79.4901764,13.4657835 80.4705438,11.1194631 C81.4509112,8.77314263 82.8051273,6.77539974 84.5332326,5.1261745 C86.2613379,3.47694925 88.288508,2.21029525 90.6148036,1.3261745 C92.9410992,0.442053745 95.4501376,0 98.141994,0 C100.933549,0 103.525668,0.433552711 105.918429,1.30067114 C108.31119,2.16778957 110.25528,3.33243117 111.750755,4.79463087 L106.367069,11.0684564 C105.53625,10.0823217 104.439584,9.2747235 103.077039,8.64563758 C101.714495,8.01655166 100.169193,7.70201342 98.4410876,7.70201342 C96.9456119,7.70201342 95.5664716,7.98254753 94.3036254,8.54362416 C93.0407792,9.10470079 91.9441134,9.88679588 91.0135952,10.8899329 C90.0830769,11.8930699 89.3602745,13.0832146 88.8451662,14.4604027 C88.3300578,15.8375908 88.0725076,17.3422737 88.0725076,18.9744966 C88.0725076,20.6407242 88.3051336,22.1709103 88.7703927,23.5651007 C89.2356519,24.9592911 89.925222,26.1579368 90.8391239,27.1610738 C91.7530257,28.1642108 92.8829238,28.9463059 94.228852,29.5073826 C95.5747801,30.0684592 97.1117738,30.3489933 98.8398792,30.3489933 C99.836863,30.3489933 100.783983,30.272484 101.681269,30.1194631 C102.578554,29.9664422 103.409362,29.7199122 104.173716,29.3798658 L104.173716,22.8 L97.4441088,22.8 L97.4441088,15.7610738 L112,15.7610738 L112,34.8885906 Z" id="Path"></path>
                        <path d="M257,18.8983051 C257,22.0508632 256.425876,24.771175 255.27761,27.059322 C254.129344,29.3474691 252.614987,31.2288062 250.734493,32.7033898 C248.854,34.1779735 246.732236,35.2627084 244.369138,35.9576271 C242.00604,36.6525458 239.609694,37 237.18003,37 L224,37 L224,1 L236.780635,1 C239.276866,1 241.739776,1.2966072 244.16944,1.88983051 C246.599104,2.48305381 248.762472,3.46609483 250.659607,4.83898305 C252.556742,6.21187127 254.08774,8.05083593 255.252648,10.3559322 C256.417555,12.6610285 257,15.5084576 257,18.8983051 Z M248.113464,18.8983051 C248.113464,16.8643966 247.788959,15.1779728 247.139939,13.8389831 C246.49092,12.4999933 245.625573,11.4322074 244.543873,10.6355932 C243.462173,9.83897907 242.230718,9.27118814 240.84947,8.93220339 C239.468223,8.59321864 238.045393,8.42372881 236.580938,8.42372881 L232.337368,8.42372881 L232.337368,29.4745763 L236.381241,29.4745763 C237.912262,29.4745763 239.385016,29.2966119 240.799546,28.940678 C242.214077,28.584744 243.462173,28.0000041 244.543873,27.1864407 C245.625573,26.3728773 246.49092,25.2881424 247.139939,23.9322034 C247.788959,22.5762644 248.113464,20.8983151 248.113464,18.8983051 Z" id="Combined-Shape"></path>
                        <path d="M75,18.8983051 C75,22.0508632 74.4258756,24.771175 73.2776097,27.059322 C72.1293437,29.3474691 70.6149867,31.2288062 68.7344932,32.7033898 C66.8539997,34.1779735 64.7322357,35.2627084 62.3691377,35.9576271 C60.0060396,36.6525458 57.6096944,37 55.1800303,37 L42,37 L42,1 L54.7806354,1 C57.2768657,1 59.7397761,1.2966072 62.1694402,1.88983051 C64.5991044,2.48305381 66.7624716,3.46609483 68.6596067,4.83898305 C70.5567417,6.21187127 72.08774,8.05083593 73.2526475,10.3559322 C74.417555,12.6610285 75,15.5084576 75,18.8983051 Z M66.1134644,18.8983051 C66.1134644,16.8643966 65.7889594,15.1779728 65.1399395,13.8389831 C64.4909196,12.4999933 63.6255727,11.4322074 62.5438729,10.6355932 C61.4621731,9.83897907 60.230718,9.27118814 58.8494705,8.93220339 C57.468223,8.59321864 56.0453931,8.42372881 54.580938,8.42372881 L50.3373676,8.42372881 L50.3373676,29.4745763 L54.3812405,29.4745763 C55.9122618,29.4745763 57.3850156,29.2966119 58.7995461,28.940678 C60.2140767,28.584744 61.4621731,28.0000041 62.5438729,27.1864407 C63.6255727,26.3728773 64.4909196,25.2881424 65.1399395,23.9322034 C65.7889594,22.5762644 66.1134644,20.8983151 66.1134644,18.8983051 Z" id="Combined-Shape"></path>
                        <path d="M29.2113606,37 L26.3778071,29.9322034 L12.2615588,29.9322034 L9.58256275,37 L0,37 L15.3011889,1 L23.8533686,1 L39,37 L29.2113606,37 Z M19.4227213,10.6101695 L14.7859974,22.9661017 L23.9564069,22.9661017 L19.4227213,10.6101695 Z" id="Combined-Shape"></path>
                        <path d="M209.982729,37 L202.319516,22.7118644 L199.414508,22.7118644 L199.414508,37 L191,37 L191,1 L204.523316,1 C206.226261,1 207.887442,1.17796432 209.506908,1.53389831 C211.126375,1.88983229 212.578865,2.49152119 213.864421,3.33898305 C215.149978,4.18644492 216.176738,5.3050778 216.944732,6.69491525 C217.712727,8.08475271 218.096718,9.81354898 218.096718,11.8813559 C218.096718,14.3220461 217.445602,16.3728731 216.143351,18.0338983 C214.841099,19.6949236 213.038008,20.8813524 210.734024,21.5932203 L220,37 L209.982729,37 Z M209.632124,12.0338983 C209.632124,11.1864364 209.456824,10.5000026 209.106218,9.97457627 C208.755611,9.44914992 208.304839,9.04237432 207.753886,8.75423729 C207.202933,8.46610025 206.585208,8.27118695 205.900691,8.16949153 C205.216174,8.0677961 204.55671,8.01694915 203.92228,8.01694915 L199.364421,8.01694915 L199.364421,16.4067797 L203.421416,16.4067797 C204.122629,16.4067797 204.840526,16.3474582 205.57513,16.2288136 C206.309733,16.1101689 206.977544,15.8983066 207.578584,15.5932203 C208.179623,15.2881341 208.672134,14.8474605 209.056131,14.2711864 C209.440129,13.6949124 209.632124,12.9491571 209.632124,12.0338983 Z" id="Combined-Shape"></path>
                    </g>
                    <path d="M128.772,92 L128.772,72.4 L142.856,72.4 L142.856,74.444 L130.984,74.444 L130.984,81.444 L141.596,81.444 L141.596,83.46 L130.984,83.46 L130.984,92 L128.772,92 Z M163.416,89.368 C161.530657,91.3466766 159.132015,92.336 156.22,92.336 C153.307985,92.336 150.918676,91.3466766 149.052,89.368 C147.185324,87.3893234 146.252,85.000014 146.252,82.2 C146.252,79.4186528 147.194657,77.0340099 149.08,75.046 C150.965343,73.0579901 153.363985,72.064 156.276,72.064 C159.188015,72.064 161.577324,73.0533234 163.444,75.032 C165.310676,77.0106766 166.244,79.399986 166.244,82.2 C166.244,84.9813472 165.301343,87.3706567 163.416,89.368 Z M150.732,87.94 C152.206674,89.5080078 154.054656,90.292 156.276,90.292 C158.497344,90.292 160.331326,89.5126745 161.778,87.954 C163.224674,86.3953255 163.948,84.4773447 163.948,82.2 C163.948,79.941322 163.215341,78.0280078 161.75,76.46 C160.284659,74.8919922 158.441344,74.108 156.22,74.108 C153.998656,74.108 152.164674,74.8873255 150.718,76.446 C149.271326,78.0046745 148.548,79.9226553 148.548,82.2 C148.548,84.458678 149.275993,86.3719922 150.732,87.94 Z M171.32,92 L171.32,72.4 L179.748,72.4 C182.156012,72.4 184.013327,73.0533268 185.32,74.36 C186.328005,75.368005 186.832,76.6746586 186.832,78.28 C186.832,79.8480078 186.346672,81.1173285 185.376,82.088 C184.405328,83.0586715 183.117341,83.6933318 181.512,83.992 L187.532,92 L184.816,92 L179.132,84.384 L173.532,84.384 L173.532,92 L171.32,92 Z M173.532,82.396 L179.552,82.396 C181.045341,82.396 182.258662,82.0320036 183.192,81.304 C184.125338,80.5759964 184.592,79.5773397 184.592,78.308 C184.592,77.0946606 184.148671,76.1473367 183.262,75.466 C182.375329,74.7846633 181.148008,74.444 179.58,74.444 L173.532,74.444 L173.532,82.396 Z M200.96,92 L200.96,72.4 L203.172,72.4 L203.172,92 L200.96,92 Z M209.312,92 L209.312,72.4 L216.648,72.4 C218.888011,72.4 220.67066,72.9599944 221.996,74.08 C223.32134,75.2000056 223.984,76.730657 223.984,78.672 C223.984,80.7066768 223.251341,82.2839944 221.786,83.404 C220.320659,84.5240056 218.486678,85.084 216.284,85.084 L211.524,85.084 L211.524,92 L209.312,92 Z M211.524,83.068 L216.368,83.068 C217.992008,83.068 219.293995,82.6713373 220.274,81.878 C221.254005,81.0846627 221.744,80.02534 221.744,78.7 C221.744,77.3373265 221.272671,76.287337 220.33,75.55 C219.387329,74.812663 218.104008,74.444 216.48,74.444 L211.524,74.444 L211.524,83.068 Z M224.776,92 L233.708,72.26 L235.78,72.26 L244.712,92 L242.332,92 L240.036,86.82 L229.368,86.82 L227.044,92 L224.776,92 Z M230.236,84.832 L239.168,84.832 L234.716,74.836 L230.236,84.832 Z M248.976,92 L248.976,72.4 L255.78,72.4 C258.841349,72.4 261.342657,73.3286574 263.284,75.186 C265.225343,77.0433426 266.196,79.3813192 266.196,82.2 C266.196,85.000014 265.220676,87.333324 263.27,89.2 C261.319324,91.066676 258.822682,92 255.78,92 L248.976,92 Z M251.188,89.956 L255.78,89.956 C258.225346,89.956 260.189993,89.2233407 261.674,87.758 C263.158007,86.2926593 263.9,84.4400112 263.9,82.2 C263.9,79.9786556 263.153341,78.130674 261.66,76.656 C260.166659,75.181326 258.206679,74.444 255.78,74.444 L251.188,74.444 L251.188,89.956 Z M287.568,89.368 C285.682657,91.3466766 283.284015,92.336 280.372,92.336 C277.459985,92.336 275.070676,91.3466766 273.204,89.368 C271.337324,87.3893234 270.404,85.000014 270.404,82.2 C270.404,79.4186528 271.346657,77.0340099 273.232,75.046 C275.117343,73.0579901 277.515985,72.064 280.428,72.064 C283.340015,72.064 285.729324,73.0533234 287.596,75.032 C289.462676,77.0106766 290.396,79.399986 290.396,82.2 C290.396,84.9813472 289.453343,87.3706567 287.568,89.368 Z M274.884,87.94 C276.358674,89.5080078 278.206656,90.292 280.428,90.292 C282.649344,90.292 284.483326,89.5126745 285.93,87.954 C287.376674,86.3953255 288.1,84.4773447 288.1,82.2 C288.1,79.941322 287.367341,78.0280078 285.902,76.46 C284.436659,74.8919922 282.593344,74.108 280.372,74.108 C278.150656,74.108 276.316674,74.8873255 274.87,76.446 C273.423326,78.0046745 272.7,79.9226553 272.7,82.2 C272.7,84.458678 273.427993,86.3719922 274.884,87.94 Z M302.192,92.28 C299.186652,92.28 296.517345,91.2346771 294.184,89.144 L295.556,87.52 C296.601339,88.4720048 297.651328,89.1719978 298.706,89.62 C299.760672,90.0680022 300.95066,90.292 302.276,90.292 C303.582673,90.292 304.637329,89.9793365 305.44,89.354 C306.242671,88.7286635 306.644,87.912005 306.644,86.904 C306.644,85.9519952 306.289337,85.1960028 305.58,84.636 C304.870663,84.0759972 303.526677,83.5906687 301.548,83.18 C299.214655,82.6759975 297.534672,81.994671 296.508,81.136 C295.481328,80.277329 294.968,79.0546746 294.968,77.468 C294.968,75.9186589 295.574661,74.640005 296.788,73.632 C298.001339,72.623995 299.541324,72.12 301.408,72.12 C304.00268,72.12 306.298657,72.9226586 308.296,74.528 L307.008,76.236 C305.271991,74.8173262 303.386677,74.108 301.352,74.108 C300.101327,74.108 299.093337,74.4113303 298.328,75.018 C297.562663,75.6246697 297.18,76.394662 297.18,77.328 C297.18,78.2986715 297.548663,79.0639972 298.286,79.624 C299.023337,80.1840028 300.42799,80.6879978 302.5,81.136 C304.721344,81.6213358 306.340662,82.2979957 307.358,83.166 C308.375338,84.0340043 308.884,85.2239924 308.884,86.736 C308.884,88.3973416 308.258673,89.7366616 307.008,90.754 C305.757327,91.7713384 304.15201,92.28 302.192,92.28 Z" id="FORIPADOS" fill="#FFFFFF"></path>
                    <g id="Group-9">
                        <g id="Group-8">
                            <g id="Group-7">
                                <path d="M49.2867362,0 C33.8812166,0 15.2983087,3.57659574 1.51147113e-05,11.4489362 C1.51147113e-05,28.4510638 -0.211154294,70.8085106 49.2867362,99.75 C98.7857208,70.8085106 98.5756455,28.4510638 98.5756455,11.4489362 C83.2762578,3.57659574 64.6933498,0 49.2867362,0 L49.2867362,0 Z" id="Path" fill="#68BC71"></path>
                                <path d="M49.236383,99.7205453 C-0.211018587,70.7797691 7.60552839e-06,28.4452847 7.60552839e-06,11.4489234 C15.2816399,3.58515676 33.8407358,0.00778289205 49.236383,2.25827002e-13 L49.236383,99.7205453 L49.236383,99.7205453 Z" id="Combined-Shape" fill="#67B279"></path>
                            </g>
                            <path d="M47.4889507,66.5564478 L77.2934578,26.8983477 C75.1094441,25.1700907 73.1937521,26.3898587 72.1391855,27.3341953 L72.1007052,27.337222 L47.2497492,52.859532 L37.8865705,41.7353279 C33.4197424,36.6403497 27.3471443,40.5266579 25.9285754,41.5537248 L47.4889507,66.5564478" id="Fill-11" fill="#FFFFFF"></path>
                        </g>
                    </g>
                </g>
            </g>
        </g>
    </g>
</svg>